<?xml version="1.0" encoding="UTF-8" standalone="no"?>
<svg
   class="ionicon"
   viewBox="0 0 512 512"
   version="1.1"
   id="svg6"
   sodipodi:docname="logo-whatsapp.svg"
   inkscape:version="1.1 (c68e22c387, 2021-05-23)"
   xmlns:inkscape="http://www.inkscape.org/namespaces/inkscape"
   xmlns:sodipodi="http://sodipodi.sourceforge.net/DTD/sodipodi-0.dtd"
   xmlns="http://www.w3.org/2000/svg"
   xmlns:svg="http://www.w3.org/2000/svg">
  <defs
     id="defs10" />
  <sodipodi:namedview
     id="namedview8"
     pagecolor="#505050"
     bordercolor="#ffffff"
     borderopacity="1"
     inkscape:pageshadow="0"
     inkscape:pageopacity="0"
     inkscape:pagecheckerboard="1"
     showgrid="false"
     inkscape:zoom="1.6445312"
     inkscape:cx="255.69596"
     inkscape:cy="256.30404"
     inkscape:window-width="2560"
     inkscape:window-height="1027"
     inkscape:window-x="-8"
     inkscape:window-y="-8"
     inkscape:window-maximized="1"
     inkscape:current-layer="svg6" />
  <title
     id="title2">Logo Whatsapp</title>
  <path
     d="M414.73 97.1A222.14 222.14 0 00256.94 32C134 32 33.92 131.58 33.87 254a220.61 220.61 0 0029.78 111L32 480l118.25-30.87a223.63 223.63 0 00106.6 27h.09c122.93 0 223-99.59 223.06-222A220.18 220.18 0 00414.73 97.1zM256.94 438.66h-.08a185.75 185.75 0 01-94.36-25.72l-6.77-4-70.17 18.32 18.73-68.09-4.41-7A183.46 183.46 0 0171.53 254c0-101.73 83.21-184.5 185.48-184.5a185 185 0 01185.33 184.64c-.04 101.74-83.21 184.52-185.4 184.52zm101.69-138.19c-5.57-2.78-33-16.2-38.08-18.05s-8.83-2.78-12.54 2.78-14.4 18-17.65 21.75-6.5 4.16-12.07 1.38-23.54-8.63-44.83-27.53c-16.57-14.71-27.75-32.87-31-38.42s-.35-8.56 2.44-11.32c2.51-2.49 5.57-6.48 8.36-9.72s3.72-5.56 5.57-9.26.93-6.94-.46-9.71-12.54-30.08-17.18-41.19c-4.53-10.82-9.12-9.35-12.54-9.52-3.25-.16-7-.2-10.69-.2a20.53 20.53 0 00-14.86 6.94c-5.11 5.56-19.51 19-19.51 46.28s20 53.68 22.76 57.38 39.3 59.73 95.21 83.76a323.11 323.11 0 0031.78 11.68c13.35 4.22 25.5 3.63 35.1 2.2 10.71-1.59 33-13.42 37.63-26.38s4.64-24.06 3.25-26.37-5.11-3.71-10.69-6.48z"
     fill-rule="evenodd"
     id="path4" />
  <path
     style="fill:#008000;stroke-width:3.7921;stroke-linecap:round;stroke-linejoin:round;stroke-dasharray:22.7526, 22.7526"
     d="m 32.836105,478.65543 c 0,-0.27965 6.997707,-25.92589 15.55046,-56.99164 L 63.937026,365.1806 58.777145,355.13187 C 21.256362,282.06113 27.075843,195.11035 73.990742,127.82051 90.246874,104.50441 110.39951,84.998571 135.00694,68.762651 194.21775,29.695501 269.6555,21.506376 336.57086,46.881931 c 10.5793,4.011867 28.77303,13.018768 37.91577,18.770386 15.62096,9.82702 27.02182,18.970654 40.54348,32.516374 18.2013,18.233679 32.29505,38.019249 42.953,60.299709 28.82897,60.26704 28.91802,129.98311 0.24301,190.26319 -7.04247,14.80456 -16.88638,30.48951 -27.47735,43.78147 -6.85501,8.60322 -25.37596,27.12417 -33.97917,33.97918 -34.11366,27.1816 -73.84956,43.54712 -116.84588,48.12381 -10.61776,1.13019 -33.27555,1.29176 -43.07811,0.30718 -28.11547,-2.82394 -52.39446,-9.57025 -76.84711,-21.35323 l -9.95875,-4.79881 -3.11489,0.88259 c -6.58285,1.86523 -112.878367,29.51012 -113.467383,29.51012 -0.341755,0 -0.621372,-0.22881 -0.621372,-0.50847 z M 270.62429,438.40438 c 32.48513,-2.48846 62.46909,-12.78558 89.35671,-30.68698 82.51,-54.93399 107.11432,-164.4368 55.94829,-249.0008 -26.9135,-44.48095 -71.02506,-75.591219 -121.59279,-85.754937 -14.4307,-2.900457 -25.55915,-3.819751 -41.68092,-3.443158 -19.54585,0.456576 -34.95845,2.956613 -51.9905,8.433237 -48.4513,15.579427 -87.45377,48.951908 -109.950629,94.079288 -9.704896,19.46747 -15.111736,37.17997 -18.114439,59.34189 -1.463499,10.80159 -1.473417,33.95795 -0.01927,44.99763 3.599588,27.3276 11.833699,50.79755 26.086048,74.35393 l 5.23833,8.65794 -9.328821,33.89549 c -5.130845,18.64251 -9.244457,33.98333 -9.141355,34.09069 0.103102,0.10736 15.928966,-3.91049 35.168586,-8.92858 l 34.98114,-9.12378 8.0984,4.6477 c 32.42727,18.61014 70.23987,27.25187 106.94122,24.44044 z"
     id="path67" />
  <path
     style="fill:#008000;stroke-width:3.7921;stroke-linecap:round;stroke-linejoin:round;stroke-dasharray:22.7526, 22.7526"
     d="m 306.47031,359.99518 c -5.934,-0.78084 -9.20164,-1.60129 -18.54632,-4.6567 -37.58532,-12.28919 -60.59066,-26.3433 -87.88841,-53.69161 -15.06877,-15.09666 -26.04101,-28.51464 -37.7426,-46.15549 -18.08261,-27.26063 -22.70858,-52.10689 -13.92705,-74.80272 3.68326,-9.51938 14.13028,-22.88618 20.75443,-26.55497 3.2032,-1.7741 3.47344,-1.81473 13.38762,-2.01285 11.33365,-0.22648 12.58709,0.0815 15.41328,3.7868 0.86657,1.13613 5.42612,11.32929 10.13233,22.65147 4.70621,11.32218 9.21039,22.15374 10.0093,24.07014 0.7989,1.91639 1.45255,4.33732 1.45255,5.37983 0,3.40526 -4.4894,10.79874 -11.54918,19.02007 -3.6839,4.29003 -6.8696,8.48375 -7.07934,9.3194 -0.63962,2.54845 0.74915,5.69892 5.99933,13.60963 17.75392,26.75072 38.03051,43.93745 66.91969,56.72205 8.0351,3.55586 11.01795,4.13232 14.10475,2.72588 1.60797,-0.73264 13.76892,-14.91382 19.24175,-22.43829 3.53179,-4.85576 4.36307,-5.42863 7.87748,-5.42863 3.37359,0 8.63321,2.26827 33.13762,14.29092 18.23147,8.94496 20.18561,10.04812 20.91398,11.80659 1.8147,4.38107 -0.84178,20.71802 -4.56521,28.07535 -4.52788,8.94689 -22.00348,20.65668 -34.93911,23.41148 -5.00145,1.06512 -17.93031,1.55283 -23.10689,0.87165 z"
     id="path106" />
</svg>
