<?xml version="1.0" encoding="UTF-8" standalone="no"?>
<svg
   class="ionicon"
   viewBox="0 0 512 512"
   version="1.1"
   id="svg8"
   sodipodi:docname="logo-instagram.svg"
   inkscape:version="1.1 (c68e22c387, 2021-05-23)"
   xmlns:inkscape="http://www.inkscape.org/namespaces/inkscape"
   xmlns:sodipodi="http://sodipodi.sourceforge.net/DTD/sodipodi-0.dtd"
   xmlns="http://www.w3.org/2000/svg"
   xmlns:svg="http://www.w3.org/2000/svg">
  <defs
     id="defs12" />
  <sodipodi:namedview
     id="namedview10"
     pagecolor="#505050"
     bordercolor="#ffffff"
     borderopacity="1"
     inkscape:pageshadow="0"
     inkscape:pageopacity="0"
     inkscape:pagecheckerboard="1"
     showgrid="false"
     inkscape:zoom="1.6445312"
     inkscape:cx="255.69596"
     inkscape:cy="256.30404"
     inkscape:window-width="2560"
     inkscape:window-height="1027"
     inkscape:window-x="-8"
     inkscape:window-y="-8"
     inkscape:window-maximized="1"
     inkscape:current-layer="svg8" />
  <title
     id="title2">Logo Instagram</title>
  <path
     d="M349.33 69.33a93.62 93.62 0 0193.34 93.34v186.66a93.62 93.62 0 01-93.34 93.34H162.67a93.62 93.62 0 01-93.34-93.34V162.67a93.62 93.62 0 0193.34-93.34h186.66m0-37.33H162.67C90.8 32 32 90.8 32 162.67v186.66C32 421.2 90.8 480 162.67 480h186.66C421.2 480 480 421.2 480 349.33V162.67C480 90.8 421.2 32 349.33 32z"
     id="path4" />
  <path
     d="M377.33 162.67a28 28 0 1128-28 27.94 27.94 0 01-28 28zM256 181.33A74.67 74.67 0 11181.33 256 74.75 74.75 0 01256 181.33m0-37.33a112 112 0 10112 112 112 112 0 00-112-112z"
     id="path6" />
  <path
     style="fill:#ffffff;stroke-width:3.7921;stroke-linecap:round;stroke-linejoin:round;stroke-dasharray:22.7526, 22.7526"
     d="M 149.89074,479.06552 C 121.41966,476.15545 93.924041,463.43388 72.934703,443.4598 51.908357,423.45051 38.161858,397.02479 33.621648,367.88599 32.605493,361.36436 32.532067,353.82439 32.532067,256 c 0,-97.82439 0.07343,-105.36436 1.089581,-111.88599 C 39.408542,106.97406 60.116709,74.523629 91.150068,53.964957 108.95008,42.172981 130.28285,34.764433 152.019,32.826094 c 5.33952,-0.476156 37.72317,-0.614527 108.84561,-0.465082 111.7682,0.234851 104.89581,0.0015 120.73644,4.099812 53.14712,13.750351 92.1735,59.609676 97.52455,114.599656 0.89163,9.16288 0.89163,200.71616 0,209.87904 -4.38849,45.09829 -31.06869,84.16778 -71.49543,104.69525 -12.11066,6.14942 -25.05456,10.3566 -39.13611,12.72046 -5.90683,0.99158 -14.12331,1.07922 -109.75772,1.17074 -59.34985,0.0568 -105.70355,-0.13929 -108.8456,-0.46045 z m 219.81947,-38.32361 c 36.98919,-9.28202 63.06301,-35.74692 71.25181,-72.32051 l 1.41328,-6.31214 V 256 149.89074 l -1.41328,-6.31214 C 432.77027,106.99185 406.7043,80.534663 369.71021,71.257438 l -6.38479,-1.601154 -103.981,-0.192911 c -72.23124,-0.134007 -105.52005,0.0083 -109.0214,0.466077 -39.0809,5.109478 -70.466823,34.26438 -79.285036,73.64915 l -1.413281,6.31214 V 256 362.10926 l 1.413281,6.31214 c 6.199264,27.68776 22.860067,49.91941 47.536836,63.43164 8.22722,4.50497 21.04304,8.75184 30.61435,10.1449 2.11177,0.30736 49.57093,0.5014 108.9391,0.44539 l 105.19715,-0.0992 z"
     id="path69" />
  <path
     style="fill:#ffffff;stroke-width:3.7921;stroke-linecap:round;stroke-linejoin:round;stroke-dasharray:22.7526, 22.7526"
     d="m 245.52179,367.20951 c -43.84087,-4.22856 -81.44675,-34.13053 -95.315,-75.78889 -7.8471,-23.57162 -7.83366,-47.31115 0.0402,-70.96135 17.68642,-53.12382 72.93966,-85.06094 127.81405,-73.87826 60.37574,12.3038 99.54574,71.26084 87.36418,131.49694 -4.48775,22.19129 -16.31617,43.46487 -32.86193,59.10261 -23.16655,21.89518 -55.54781,33.06658 -87.04146,30.02895 z m 23.01614,-37.35605 c 22.97088,-3.9979 42.35133,-17.94367 53.62166,-38.58505 3.14482,-5.75967 6.46197,-15.63271 7.76347,-23.10689 1.45094,-8.33235 0.93785,-21.91608 -1.12546,-29.79572 -2.14651,-8.19743 -4.78921,-14.68534 -8.48435,-20.82938 -10.36759,-17.23856 -26.3187,-29.06534 -46.13109,-34.2034 -8.38934,-2.17565 -21.78785,-2.74617 -30.17558,-1.28489 -30.27837,5.27496 -52.95974,26.26676 -60.79462,56.26592 -2.07311,7.93782 -2.58881,21.49879 -1.13503,29.84747 5.52572,31.73273 29.47991,55.9789 60.9132,61.65567 6.51939,1.17739 18.89035,1.19495 25.5478,0.0363 z"
     id="path108" />
  <path
     style="fill:#ffffff;stroke-width:3.7921;stroke-linecap:round;stroke-linejoin:round;stroke-dasharray:22.7526, 22.7526"
     d="m 370.38191,161.394 c -12.83044,-3.4503 -21.64734,-15.81711 -20.55729,-28.83418 0.95062,-11.35218 8.72146,-20.92373 19.75377,-24.33126 20.04729,-6.19198 39.78616,12.71048 34.49318,33.03157 -3.92974,15.08733 -18.98894,24.08712 -33.68966,20.13387 z"
     id="path147" />
</svg>
