<?xml version="1.0" encoding="UTF-8" standalone="no"?>
<svg
   class="ionicon"
   viewBox="0 0 512 512"
   version="1.1"
   id="svg6"
   sodipodi:docname="logo-twitter.svg"
   inkscape:version="1.1 (c68e22c387, 2021-05-23)"
   xmlns:inkscape="http://www.inkscape.org/namespaces/inkscape"
   xmlns:sodipodi="http://sodipodi.sourceforge.net/DTD/sodipodi-0.dtd"
   xmlns="http://www.w3.org/2000/svg"
   xmlns:svg="http://www.w3.org/2000/svg">
  <defs
     id="defs10" />
  <sodipodi:namedview
     id="namedview8"
     pagecolor="#505050"
     bordercolor="#ffffff"
     borderopacity="1"
     inkscape:pageshadow="0"
     inkscape:pageopacity="0"
     inkscape:pagecheckerboard="1"
     showgrid="false"
     inkscape:zoom="1.6445312"
     inkscape:cx="255.69596"
     inkscape:cy="256.30404"
     inkscape:window-width="2560"
     inkscape:window-height="1027"
     inkscape:window-x="-8"
     inkscape:window-y="-8"
     inkscape:window-maximized="1"
     inkscape:current-layer="svg6" />
  <title
     id="title2">Logo Twitter</title>
  <path
     d="M496 109.5a201.8 201.8 0 01-56.55 15.3 97.51 97.51 0 0043.33-53.6 197.74 197.74 0 01-62.56 23.5A99.14 99.14 0 00348.31 64c-54.42 0-98.46 43.4-98.46 96.9a93.21 93.21 0 002.54 22.1 280.7 280.7 0 01-203-101.3A95.69 95.69 0 0036 130.4c0 33.6 17.53 63.3 44 80.7A97.5 97.5 0 0135.22 199v1.2c0 47 34 86.1 79 95a100.76 100.76 0 01-25.94 3.4 94.38 94.38 0 01-18.51-1.8c12.51 38.5 48.92 66.5 92.05 67.3A199.59 199.59 0 0139.5 405.6a203 203 0 01-23.5-1.4A278.68 278.68 0 00166.74 448c181.36 0 280.44-147.7 280.44-275.8 0-4.2-.11-8.4-.31-12.5A198.48 198.48 0 00496 109.5z"
     id="path4" />
  <path
     style="fill:#ffffff;stroke-width:3.7921;stroke-linecap:round;stroke-linejoin:round;stroke-dasharray:22.7526, 22.7526"
     d="M 145.02613,446.92713 C 107.97664,443.75505 73.706658,434.2499 41.864607,418.31419 33.427506,414.09174 26.132234,410.08422 20.882675,406.78816 l -2.528252,-1.58742 16.514,0.26877 c 22.012581,0.35827 35.704579,-1.09246 54.186455,-5.74127 23.762082,-5.97695 47.766842,-17.16774 67.980752,-31.69199 2.59192,-1.86237 4.71259,-3.5745 4.71259,-3.80475 0,-0.23024 -2.58396,-0.58836 -5.74213,-0.79581 -33.57249,-2.2053 -65.530114,-23.51181 -80.426043,-53.62096 -2.994239,-6.05226 -5.300604,-11.8028 -4.89601,-12.2074 0.168414,-0.16841 2.188034,-0.005 4.488045,0.36274 6.954421,1.11245 22.029464,0.81548 30.228248,-0.59548 8.27336,-1.4238 10.19821,-2.14353 7.38918,-2.76289 -0.9986,-0.22019 -4.96243,-1.36014 -8.80851,-2.53323 -31.679208,-9.66246 -57.057271,-36.07451 -65.357507,-68.02038 -1.439863,-5.54173 -2.315512,-11.32117 -3.056757,-20.17514 l -0.366948,-4.38307 5.659014,2.63878 c 10.348873,4.82563 21.64425,7.83562 33.093543,8.81875 6.107569,0.52445 7.385836,0.38928 5.627012,-0.59501 C 73.186554,206.78481 60.007034,193.96209 53.982116,185.45814 46.676103,175.14597 40.938241,162.04872 38.183952,149.39723 37.030495,144.09896 36.8352,141.35291 36.8352,130.4323 c 0,-14.16162 0.86014,-19.9047 4.570728,-30.518362 2.131116,-6.095786 6.777849,-16.250031 7.695898,-16.817417 0.337087,-0.208331 3.220221,2.558419 6.406967,6.148333 40.475774,45.596546 95.090387,76.875436 155.189547,88.880166 11.14425,2.22605 24.95639,4.09093 34.50831,4.65924 8.04446,0.47862 7.72616,0.68863 6.53836,-4.31395 -2.05565,-8.65768 -1.89248,-25.66716 0.35207,-36.70194 2.32865,-11.44816 7.97952,-24.61337 15.04199,-35.0443 5.11585,-7.555855 17.87221,-20.246421 25.31983,-25.189229 11.1987,-7.432316 23.2216,-12.488254 36.51022,-15.35349 5.51676,-1.189501 8.1622,-1.376663 19.45843,-1.376663 11.22425,0 13.94642,0.190201 19.24349,1.344564 18.33101,3.994786 34.419,12.243284 47.86049,24.538633 l 4.7762,4.368937 7.38533,-1.677511 c 14.93956,-3.393388 34.33464,-10.599592 47.64908,-17.703927 3.41633,-1.822887 6.34238,-3.314339 6.50233,-3.314339 0.52226,0 -3.23953,8.597533 -6.33205,14.471845 -1.66288,3.158676 -4.59996,7.965259 -6.52683,10.681296 -4.73641,6.676244 -15.67068,17.488344 -22.35376,22.103984 -8.69568,6.00565 -8.30002,5.62571 -5.47269,5.25516 15.91532,-2.08587 35.63221,-7.13815 48.39297,-12.40027 2.41888,-0.99746 4.52203,-1.6895 4.67367,-1.53786 0.39171,0.39171 -7.3646,10.5911 -12.97724,17.0648 -6.90546,7.96486 -16.52875,17.21582 -25.06874,24.09879 -4.11298,3.31494 -7.94386,6.31774 -8.51306,6.67289 -0.91278,0.56951 -1.00957,1.66231 -0.82016,9.26006 0.81836,32.8265 -6.51542,71.48214 -20.03501,105.60246 -3.97185,10.02404 -14.85037,32.02014 -20.20853,40.86111 -12.82251,21.1572 -25.02946,36.75011 -42.31845,54.0567 -20.5888,20.60977 -40.68852,35.37596 -65.47552,48.10139 -31.465,16.15385 -62.21653,25.25577 -99.36014,29.40886 -10.17986,1.13823 -44.8034,1.68845 -54.4228,0.86487 z"
     id="path85" />
</svg>
