<?xml version="1.0" encoding="UTF-8" standalone="no"?>
<svg
   class="ionicon"
   viewBox="0 0 512 512"
   version="1.1"
   id="svg6"
   sodipodi:docname="logo-facebook.svg"
   inkscape:version="1.1 (c68e22c387, 2021-05-23)"
   xmlns:inkscape="http://www.inkscape.org/namespaces/inkscape"
   xmlns:sodipodi="http://sodipodi.sourceforge.net/DTD/sodipodi-0.dtd"
   xmlns="http://www.w3.org/2000/svg"
   xmlns:svg="http://www.w3.org/2000/svg">
  <defs
     id="defs10" />
  <sodipodi:namedview
     id="namedview8"
     pagecolor="#505050"
     bordercolor="#ffffff"
     borderopacity="1"
     inkscape:pageshadow="0"
     inkscape:pageopacity="0"
     inkscape:pagecheckerboard="1"
     showgrid="false"
     inkscape:zoom="1.6445312"
     inkscape:cx="255.69596"
     inkscape:cy="256.30404"
     inkscape:window-width="2560"
     inkscape:window-height="1027"
     inkscape:window-x="-8"
     inkscape:window-y="-8"
     inkscape:window-maximized="1"
     inkscape:current-layer="svg6" />
  <title
     id="title2">Logo Facebook</title>
  <path
     d="M480 257.35c0-123.7-100.3-224-224-224s-224 100.3-224 224c0 111.8 81.9 204.47 189 221.29V322.12h-56.89v-64.77H221V208c0-56.13 33.45-87.16 84.61-87.16 24.51 0 50.15 4.38 50.15 4.38v55.13H327.5c-27.81 0-36.51 17.26-36.51 35v42h62.12l-9.92 64.77H291v156.54c107.1-16.81 189-109.48 189-221.31z"
     fill-rule="evenodd"
     id="path4" />
  <path
     style="fill:#ffffff;stroke-width:3.7921;stroke-linecap:round;stroke-linejoin:round;stroke-dasharray:22.7526, 22.7526"
     d="m 291.26841,400.32669 v -78.0464 h 26.14727 c 14.38099,0 26.14727,-0.12457 26.14727,-0.27681 0,-0.15225 2.18907,-14.58142 4.8646,-32.06482 2.67554,-17.4834 4.86461,-31.99827 4.86461,-32.25526 0,-0.25698 -13.97427,-0.46725 -31.05395,-0.46725 h -31.05394 l 0.21448,-25.08313 0.21448,-25.08314 1.58606,-4.7089 c 2.80934,-8.34072 7.43457,-13.91351 14.52545,-17.50125 6.93972,-3.51125 8.95299,-3.78856 29.61153,-4.07863 l 19.00847,-0.26691 -0.15812,-27.76729 -0.15812,-27.76728 -7.29691,-1.04755 c -9.91076,-1.42279 -24.86235,-2.77374 -35.87648,-3.24161 -52.9931,-2.25107 -86.36519,24.92758 -91.50389,74.52194 -0.32921,3.1772 -0.6033,18.4323 -0.60909,33.90024 l -0.0105,28.12351 h -28.57957 -28.57957 v 32.53207 32.53207 h 28.57957 28.57957 v 77.83372 77.83373 h -1.29841 c -2.57967,0 -16.83884,-3.21027 -25.90656,-5.83253 C 124.16341,452.05632 68.159324,398.70432 44.541463,330.18527 36.115675,305.74076 32.5616,283.96542 32.582145,256.91211 32.609357,221.08093 39.604817,190.94554 55.308163,159.01188 67.302359,134.62098 80.9504,115.87855 100.69948,96.677391 160.96401,38.084845 248.90802,18.46754 328.66508,45.82605 c 49.20489,16.878409 91.6812,51.220327 118.93658,96.1597 5.57527,9.19267 14.15598,26.86858 17.85888,36.7886 24.14324,64.67943 17.13266,137.13621 -18.93692,195.71957 -9.30728,15.11666 -19.60963,28.07842 -32.69687,41.13708 -32.08393,32.01389 -72.21907,53.21143 -116.69215,61.63146 l -5.86619,1.11064 z"
     id="path86" />
</svg>
